%TF.GenerationSoftware,KiCad,Pcbnew,(6.0.7-1)-1*%
%TF.CreationDate,2022-12-01T13:28:54-08:00*%
%TF.ProjectId,can-hub-pcb,63616e2d-6875-4622-9d70-63622e6b6963,rev?*%
%TF.SameCoordinates,Original*%
%TF.FileFunction,Drillmap*%
%TF.FilePolarity,Positive*%
%FSLAX45Y45*%
G04 Gerber Fmt 4.5, Leading zero omitted, Abs format (unit mm)*
G04 Created by KiCad (PCBNEW (6.0.7-1)-1) date 2022-12-01 13:28:54*
%MOMM*%
%LPD*%
G01*
G04 APERTURE LIST*
%ADD10C,0.100000*%
%ADD11C,0.200000*%
%ADD12C,0.320000*%
%ADD13C,0.345000*%
G04 APERTURE END LIST*
D10*
X17200000Y-11370000D02*
X14290000Y-11370000D01*
X13640000Y-10240000D02*
X14290000Y-11370000D01*
X15100000Y-8010000D02*
X16400000Y-8010000D01*
X13640000Y-10240000D02*
X15100000Y-8010000D01*
X17850000Y-10240000D02*
X16400000Y-8010000D01*
X17200000Y-11370000D02*
X17850000Y-10240000D01*
D11*
D12*
X14540000Y-9040000D02*
X14860000Y-9360000D01*
X14860000Y-9040000D02*
X14540000Y-9360000D01*
X15590000Y-10890000D02*
X15910000Y-11210000D01*
X15910000Y-10890000D02*
X15590000Y-11210000D01*
X16640000Y-9040000D02*
X16960000Y-9360000D01*
X16960000Y-9040000D02*
X16640000Y-9360000D01*
D13*
X14319054Y-10261174D02*
G75*
G03*
X14319054Y-10261174I-172500J0D01*
G01*
X14700054Y-10921085D02*
G75*
G03*
X14700054Y-10921085I-172500J0D01*
G01*
X15541500Y-8436600D02*
G75*
G03*
X15541500Y-8436600I-172500J0D01*
G01*
X16303500Y-8436600D02*
G75*
G03*
X16303500Y-8436600I-172500J0D01*
G01*
X17144946Y-10921126D02*
G75*
G03*
X17144946Y-10921126I-172500J0D01*
G01*
X17525946Y-10261215D02*
G75*
G03*
X17525946Y-10261215I-172500J0D01*
G01*
D11*
X13892619Y-11685476D02*
X13892619Y-11485476D01*
X13940238Y-11485476D01*
X13968809Y-11495000D01*
X13987857Y-11514048D01*
X13997381Y-11533095D01*
X14006905Y-11571190D01*
X14006905Y-11599762D01*
X13997381Y-11637857D01*
X13987857Y-11656905D01*
X13968809Y-11675952D01*
X13940238Y-11685476D01*
X13892619Y-11685476D01*
X14092619Y-11685476D02*
X14092619Y-11552143D01*
X14092619Y-11590238D02*
X14102143Y-11571190D01*
X14111667Y-11561667D01*
X14130714Y-11552143D01*
X14149762Y-11552143D01*
X14216428Y-11685476D02*
X14216428Y-11552143D01*
X14216428Y-11485476D02*
X14206905Y-11495000D01*
X14216428Y-11504524D01*
X14225952Y-11495000D01*
X14216428Y-11485476D01*
X14216428Y-11504524D01*
X14340238Y-11685476D02*
X14321190Y-11675952D01*
X14311667Y-11656905D01*
X14311667Y-11485476D01*
X14445000Y-11685476D02*
X14425952Y-11675952D01*
X14416428Y-11656905D01*
X14416428Y-11485476D01*
X14673571Y-11685476D02*
X14673571Y-11485476D01*
X14740238Y-11628333D01*
X14806905Y-11485476D01*
X14806905Y-11685476D01*
X14987857Y-11685476D02*
X14987857Y-11580714D01*
X14978333Y-11561667D01*
X14959286Y-11552143D01*
X14921190Y-11552143D01*
X14902143Y-11561667D01*
X14987857Y-11675952D02*
X14968809Y-11685476D01*
X14921190Y-11685476D01*
X14902143Y-11675952D01*
X14892619Y-11656905D01*
X14892619Y-11637857D01*
X14902143Y-11618809D01*
X14921190Y-11609286D01*
X14968809Y-11609286D01*
X14987857Y-11599762D01*
X15083095Y-11552143D02*
X15083095Y-11752143D01*
X15083095Y-11561667D02*
X15102143Y-11552143D01*
X15140238Y-11552143D01*
X15159286Y-11561667D01*
X15168809Y-11571190D01*
X15178333Y-11590238D01*
X15178333Y-11647381D01*
X15168809Y-11666428D01*
X15159286Y-11675952D01*
X15140238Y-11685476D01*
X15102143Y-11685476D01*
X15083095Y-11675952D01*
X15264048Y-11666428D02*
X15273571Y-11675952D01*
X15264048Y-11685476D01*
X15254524Y-11675952D01*
X15264048Y-11666428D01*
X15264048Y-11685476D01*
X15264048Y-11561667D02*
X15273571Y-11571190D01*
X15264048Y-11580714D01*
X15254524Y-11571190D01*
X15264048Y-11561667D01*
X15264048Y-11580714D01*
X13435000Y-11915000D02*
X13635000Y-12115000D01*
X13635000Y-11915000D02*
X13435000Y-12115000D01*
X13873571Y-11905476D02*
X13997381Y-11905476D01*
X13930714Y-11981667D01*
X13959286Y-11981667D01*
X13978333Y-11991190D01*
X13987857Y-12000714D01*
X13997381Y-12019762D01*
X13997381Y-12067381D01*
X13987857Y-12086428D01*
X13978333Y-12095952D01*
X13959286Y-12105476D01*
X13902143Y-12105476D01*
X13883095Y-12095952D01*
X13873571Y-12086428D01*
X14083095Y-12086428D02*
X14092619Y-12095952D01*
X14083095Y-12105476D01*
X14073571Y-12095952D01*
X14083095Y-12086428D01*
X14083095Y-12105476D01*
X14168809Y-11924524D02*
X14178333Y-11915000D01*
X14197381Y-11905476D01*
X14245000Y-11905476D01*
X14264048Y-11915000D01*
X14273571Y-11924524D01*
X14283095Y-11943571D01*
X14283095Y-11962619D01*
X14273571Y-11991190D01*
X14159286Y-12105476D01*
X14283095Y-12105476D01*
X14406905Y-11905476D02*
X14425952Y-11905476D01*
X14445000Y-11915000D01*
X14454524Y-11924524D01*
X14464048Y-11943571D01*
X14473571Y-11981667D01*
X14473571Y-12029286D01*
X14464048Y-12067381D01*
X14454524Y-12086428D01*
X14445000Y-12095952D01*
X14425952Y-12105476D01*
X14406905Y-12105476D01*
X14387857Y-12095952D01*
X14378333Y-12086428D01*
X14368809Y-12067381D01*
X14359286Y-12029286D01*
X14359286Y-11981667D01*
X14368809Y-11943571D01*
X14378333Y-11924524D01*
X14387857Y-11915000D01*
X14406905Y-11905476D01*
X14597381Y-11905476D02*
X14616428Y-11905476D01*
X14635476Y-11915000D01*
X14645000Y-11924524D01*
X14654524Y-11943571D01*
X14664048Y-11981667D01*
X14664048Y-12029286D01*
X14654524Y-12067381D01*
X14645000Y-12086428D01*
X14635476Y-12095952D01*
X14616428Y-12105476D01*
X14597381Y-12105476D01*
X14578333Y-12095952D01*
X14568809Y-12086428D01*
X14559286Y-12067381D01*
X14549762Y-12029286D01*
X14549762Y-11981667D01*
X14559286Y-11943571D01*
X14568809Y-11924524D01*
X14578333Y-11915000D01*
X14597381Y-11905476D01*
X14749762Y-12105476D02*
X14749762Y-11972143D01*
X14749762Y-11991190D02*
X14759286Y-11981667D01*
X14778333Y-11972143D01*
X14806905Y-11972143D01*
X14825952Y-11981667D01*
X14835476Y-12000714D01*
X14835476Y-12105476D01*
X14835476Y-12000714D02*
X14845000Y-11981667D01*
X14864048Y-11972143D01*
X14892619Y-11972143D01*
X14911667Y-11981667D01*
X14921190Y-12000714D01*
X14921190Y-12105476D01*
X15016428Y-12105476D02*
X15016428Y-11972143D01*
X15016428Y-11991190D02*
X15025952Y-11981667D01*
X15045000Y-11972143D01*
X15073571Y-11972143D01*
X15092619Y-11981667D01*
X15102143Y-12000714D01*
X15102143Y-12105476D01*
X15102143Y-12000714D02*
X15111667Y-11981667D01*
X15130714Y-11972143D01*
X15159286Y-11972143D01*
X15178333Y-11981667D01*
X15187857Y-12000714D01*
X15187857Y-12105476D01*
X15578333Y-11895952D02*
X15406905Y-12153095D01*
X15835476Y-11905476D02*
X15854524Y-11905476D01*
X15873571Y-11915000D01*
X15883095Y-11924524D01*
X15892619Y-11943571D01*
X15902143Y-11981667D01*
X15902143Y-12029286D01*
X15892619Y-12067381D01*
X15883095Y-12086428D01*
X15873571Y-12095952D01*
X15854524Y-12105476D01*
X15835476Y-12105476D01*
X15816428Y-12095952D01*
X15806905Y-12086428D01*
X15797381Y-12067381D01*
X15787857Y-12029286D01*
X15787857Y-11981667D01*
X15797381Y-11943571D01*
X15806905Y-11924524D01*
X15816428Y-11915000D01*
X15835476Y-11905476D01*
X15987857Y-12086428D02*
X15997381Y-12095952D01*
X15987857Y-12105476D01*
X15978333Y-12095952D01*
X15987857Y-12086428D01*
X15987857Y-12105476D01*
X16187857Y-12105476D02*
X16073571Y-12105476D01*
X16130714Y-12105476D02*
X16130714Y-11905476D01*
X16111667Y-11934048D01*
X16092619Y-11953095D01*
X16073571Y-11962619D01*
X16264048Y-11924524D02*
X16273571Y-11915000D01*
X16292619Y-11905476D01*
X16340238Y-11905476D01*
X16359286Y-11915000D01*
X16368809Y-11924524D01*
X16378333Y-11943571D01*
X16378333Y-11962619D01*
X16368809Y-11991190D01*
X16254524Y-12105476D01*
X16378333Y-12105476D01*
X16549762Y-11905476D02*
X16511667Y-11905476D01*
X16492619Y-11915000D01*
X16483095Y-11924524D01*
X16464048Y-11953095D01*
X16454524Y-11991190D01*
X16454524Y-12067381D01*
X16464048Y-12086428D01*
X16473571Y-12095952D01*
X16492619Y-12105476D01*
X16530714Y-12105476D01*
X16549762Y-12095952D01*
X16559286Y-12086428D01*
X16568809Y-12067381D01*
X16568809Y-12019762D01*
X16559286Y-12000714D01*
X16549762Y-11991190D01*
X16530714Y-11981667D01*
X16492619Y-11981667D01*
X16473571Y-11991190D01*
X16464048Y-12000714D01*
X16454524Y-12019762D01*
X16692619Y-11905476D02*
X16711667Y-11905476D01*
X16730714Y-11915000D01*
X16740238Y-11924524D01*
X16749762Y-11943571D01*
X16759286Y-11981667D01*
X16759286Y-12029286D01*
X16749762Y-12067381D01*
X16740238Y-12086428D01*
X16730714Y-12095952D01*
X16711667Y-12105476D01*
X16692619Y-12105476D01*
X16673571Y-12095952D01*
X16664048Y-12086428D01*
X16654524Y-12067381D01*
X16645000Y-12029286D01*
X16645000Y-11981667D01*
X16654524Y-11943571D01*
X16664048Y-11924524D01*
X16673571Y-11915000D01*
X16692619Y-11905476D01*
X16835476Y-11905476D02*
X16835476Y-11943571D01*
X16911667Y-11905476D02*
X16911667Y-11943571D01*
X17206905Y-12181667D02*
X17197381Y-12172143D01*
X17178333Y-12143571D01*
X17168810Y-12124524D01*
X17159286Y-12095952D01*
X17149762Y-12048333D01*
X17149762Y-12010238D01*
X17159286Y-11962619D01*
X17168810Y-11934048D01*
X17178333Y-11915000D01*
X17197381Y-11886428D01*
X17206905Y-11876905D01*
X17264048Y-11905476D02*
X17387857Y-11905476D01*
X17321190Y-11981667D01*
X17349762Y-11981667D01*
X17368810Y-11991190D01*
X17378333Y-12000714D01*
X17387857Y-12019762D01*
X17387857Y-12067381D01*
X17378333Y-12086428D01*
X17368810Y-12095952D01*
X17349762Y-12105476D01*
X17292619Y-12105476D01*
X17273571Y-12095952D01*
X17264048Y-12086428D01*
X17625952Y-12105476D02*
X17625952Y-11905476D01*
X17711667Y-12105476D02*
X17711667Y-12000714D01*
X17702143Y-11981667D01*
X17683095Y-11972143D01*
X17654524Y-11972143D01*
X17635476Y-11981667D01*
X17625952Y-11991190D01*
X17835476Y-12105476D02*
X17816429Y-12095952D01*
X17806905Y-12086428D01*
X17797381Y-12067381D01*
X17797381Y-12010238D01*
X17806905Y-11991190D01*
X17816429Y-11981667D01*
X17835476Y-11972143D01*
X17864048Y-11972143D01*
X17883095Y-11981667D01*
X17892619Y-11991190D01*
X17902143Y-12010238D01*
X17902143Y-12067381D01*
X17892619Y-12086428D01*
X17883095Y-12095952D01*
X17864048Y-12105476D01*
X17835476Y-12105476D01*
X18016429Y-12105476D02*
X17997381Y-12095952D01*
X17987857Y-12076905D01*
X17987857Y-11905476D01*
X18168810Y-12095952D02*
X18149762Y-12105476D01*
X18111667Y-12105476D01*
X18092619Y-12095952D01*
X18083095Y-12076905D01*
X18083095Y-12000714D01*
X18092619Y-11981667D01*
X18111667Y-11972143D01*
X18149762Y-11972143D01*
X18168810Y-11981667D01*
X18178333Y-12000714D01*
X18178333Y-12019762D01*
X18083095Y-12038809D01*
X18254524Y-12095952D02*
X18273571Y-12105476D01*
X18311667Y-12105476D01*
X18330714Y-12095952D01*
X18340238Y-12076905D01*
X18340238Y-12067381D01*
X18330714Y-12048333D01*
X18311667Y-12038809D01*
X18283095Y-12038809D01*
X18264048Y-12029286D01*
X18254524Y-12010238D01*
X18254524Y-12000714D01*
X18264048Y-11981667D01*
X18283095Y-11972143D01*
X18311667Y-11972143D01*
X18330714Y-11981667D01*
X18406905Y-12181667D02*
X18416429Y-12172143D01*
X18435476Y-12143571D01*
X18445000Y-12124524D01*
X18454524Y-12095952D01*
X18464048Y-12048333D01*
X18464048Y-12010238D01*
X18454524Y-11962619D01*
X18445000Y-11934048D01*
X18435476Y-11915000D01*
X18416429Y-11886428D01*
X18406905Y-11876905D01*
X18768810Y-12181667D02*
X18759286Y-12172143D01*
X18740238Y-12143571D01*
X18730714Y-12124524D01*
X18721190Y-12095952D01*
X18711667Y-12048333D01*
X18711667Y-12010238D01*
X18721190Y-11962619D01*
X18730714Y-11934048D01*
X18740238Y-11915000D01*
X18759286Y-11886428D01*
X18768810Y-11876905D01*
X18845000Y-11972143D02*
X18845000Y-12105476D01*
X18845000Y-11991190D02*
X18854524Y-11981667D01*
X18873571Y-11972143D01*
X18902143Y-11972143D01*
X18921190Y-11981667D01*
X18930714Y-12000714D01*
X18930714Y-12105476D01*
X19054524Y-12105476D02*
X19035476Y-12095952D01*
X19025952Y-12086428D01*
X19016429Y-12067381D01*
X19016429Y-12010238D01*
X19025952Y-11991190D01*
X19035476Y-11981667D01*
X19054524Y-11972143D01*
X19083095Y-11972143D01*
X19102143Y-11981667D01*
X19111667Y-11991190D01*
X19121190Y-12010238D01*
X19121190Y-12067381D01*
X19111667Y-12086428D01*
X19102143Y-12095952D01*
X19083095Y-12105476D01*
X19054524Y-12105476D01*
X19178333Y-11972143D02*
X19254524Y-11972143D01*
X19206905Y-11905476D02*
X19206905Y-12076905D01*
X19216429Y-12095952D01*
X19235476Y-12105476D01*
X19254524Y-12105476D01*
X19473571Y-11972143D02*
X19473571Y-12172143D01*
X19473571Y-11981667D02*
X19492619Y-11972143D01*
X19530714Y-11972143D01*
X19549762Y-11981667D01*
X19559286Y-11991190D01*
X19568810Y-12010238D01*
X19568810Y-12067381D01*
X19559286Y-12086428D01*
X19549762Y-12095952D01*
X19530714Y-12105476D01*
X19492619Y-12105476D01*
X19473571Y-12095952D01*
X19683095Y-12105476D02*
X19664048Y-12095952D01*
X19654524Y-12076905D01*
X19654524Y-11905476D01*
X19845000Y-12105476D02*
X19845000Y-12000714D01*
X19835476Y-11981667D01*
X19816429Y-11972143D01*
X19778333Y-11972143D01*
X19759286Y-11981667D01*
X19845000Y-12095952D02*
X19825952Y-12105476D01*
X19778333Y-12105476D01*
X19759286Y-12095952D01*
X19749762Y-12076905D01*
X19749762Y-12057857D01*
X19759286Y-12038809D01*
X19778333Y-12029286D01*
X19825952Y-12029286D01*
X19845000Y-12019762D01*
X19911667Y-11972143D02*
X19987857Y-11972143D01*
X19940238Y-11905476D02*
X19940238Y-12076905D01*
X19949762Y-12095952D01*
X19968810Y-12105476D01*
X19987857Y-12105476D01*
X20130714Y-12095952D02*
X20111667Y-12105476D01*
X20073571Y-12105476D01*
X20054524Y-12095952D01*
X20045000Y-12076905D01*
X20045000Y-12000714D01*
X20054524Y-11981667D01*
X20073571Y-11972143D01*
X20111667Y-11972143D01*
X20130714Y-11981667D01*
X20140238Y-12000714D01*
X20140238Y-12019762D01*
X20045000Y-12038809D01*
X20311667Y-12105476D02*
X20311667Y-11905476D01*
X20311667Y-12095952D02*
X20292619Y-12105476D01*
X20254524Y-12105476D01*
X20235476Y-12095952D01*
X20225952Y-12086428D01*
X20216429Y-12067381D01*
X20216429Y-12010238D01*
X20225952Y-11991190D01*
X20235476Y-11981667D01*
X20254524Y-11972143D01*
X20292619Y-11972143D01*
X20311667Y-11981667D01*
X20387857Y-12181667D02*
X20397381Y-12172143D01*
X20416429Y-12143571D01*
X20425952Y-12124524D01*
X20435476Y-12095952D01*
X20445000Y-12048333D01*
X20445000Y-12010238D01*
X20435476Y-11962619D01*
X20425952Y-11934048D01*
X20416429Y-11915000D01*
X20397381Y-11886428D01*
X20387857Y-11876905D01*
X13635000Y-12335000D02*
G75*
G03*
X13635000Y-12335000I-100000J0D01*
G01*
X13873571Y-12225476D02*
X13997381Y-12225476D01*
X13930714Y-12301667D01*
X13959286Y-12301667D01*
X13978333Y-12311190D01*
X13987857Y-12320714D01*
X13997381Y-12339762D01*
X13997381Y-12387381D01*
X13987857Y-12406428D01*
X13978333Y-12415952D01*
X13959286Y-12425476D01*
X13902143Y-12425476D01*
X13883095Y-12415952D01*
X13873571Y-12406428D01*
X14083095Y-12406428D02*
X14092619Y-12415952D01*
X14083095Y-12425476D01*
X14073571Y-12415952D01*
X14083095Y-12406428D01*
X14083095Y-12425476D01*
X14264048Y-12292143D02*
X14264048Y-12425476D01*
X14216428Y-12215952D02*
X14168809Y-12358809D01*
X14292619Y-12358809D01*
X14464048Y-12225476D02*
X14368809Y-12225476D01*
X14359286Y-12320714D01*
X14368809Y-12311190D01*
X14387857Y-12301667D01*
X14435476Y-12301667D01*
X14454524Y-12311190D01*
X14464048Y-12320714D01*
X14473571Y-12339762D01*
X14473571Y-12387381D01*
X14464048Y-12406428D01*
X14454524Y-12415952D01*
X14435476Y-12425476D01*
X14387857Y-12425476D01*
X14368809Y-12415952D01*
X14359286Y-12406428D01*
X14597381Y-12225476D02*
X14616428Y-12225476D01*
X14635476Y-12235000D01*
X14645000Y-12244524D01*
X14654524Y-12263571D01*
X14664048Y-12301667D01*
X14664048Y-12349286D01*
X14654524Y-12387381D01*
X14645000Y-12406428D01*
X14635476Y-12415952D01*
X14616428Y-12425476D01*
X14597381Y-12425476D01*
X14578333Y-12415952D01*
X14568809Y-12406428D01*
X14559286Y-12387381D01*
X14549762Y-12349286D01*
X14549762Y-12301667D01*
X14559286Y-12263571D01*
X14568809Y-12244524D01*
X14578333Y-12235000D01*
X14597381Y-12225476D01*
X14749762Y-12425476D02*
X14749762Y-12292143D01*
X14749762Y-12311190D02*
X14759286Y-12301667D01*
X14778333Y-12292143D01*
X14806905Y-12292143D01*
X14825952Y-12301667D01*
X14835476Y-12320714D01*
X14835476Y-12425476D01*
X14835476Y-12320714D02*
X14845000Y-12301667D01*
X14864048Y-12292143D01*
X14892619Y-12292143D01*
X14911667Y-12301667D01*
X14921190Y-12320714D01*
X14921190Y-12425476D01*
X15016428Y-12425476D02*
X15016428Y-12292143D01*
X15016428Y-12311190D02*
X15025952Y-12301667D01*
X15045000Y-12292143D01*
X15073571Y-12292143D01*
X15092619Y-12301667D01*
X15102143Y-12320714D01*
X15102143Y-12425476D01*
X15102143Y-12320714D02*
X15111667Y-12301667D01*
X15130714Y-12292143D01*
X15159286Y-12292143D01*
X15178333Y-12301667D01*
X15187857Y-12320714D01*
X15187857Y-12425476D01*
X15578333Y-12215952D02*
X15406905Y-12473095D01*
X15835476Y-12225476D02*
X15854524Y-12225476D01*
X15873571Y-12235000D01*
X15883095Y-12244524D01*
X15892619Y-12263571D01*
X15902143Y-12301667D01*
X15902143Y-12349286D01*
X15892619Y-12387381D01*
X15883095Y-12406428D01*
X15873571Y-12415952D01*
X15854524Y-12425476D01*
X15835476Y-12425476D01*
X15816428Y-12415952D01*
X15806905Y-12406428D01*
X15797381Y-12387381D01*
X15787857Y-12349286D01*
X15787857Y-12301667D01*
X15797381Y-12263571D01*
X15806905Y-12244524D01*
X15816428Y-12235000D01*
X15835476Y-12225476D01*
X15987857Y-12406428D02*
X15997381Y-12415952D01*
X15987857Y-12425476D01*
X15978333Y-12415952D01*
X15987857Y-12406428D01*
X15987857Y-12425476D01*
X16187857Y-12425476D02*
X16073571Y-12425476D01*
X16130714Y-12425476D02*
X16130714Y-12225476D01*
X16111667Y-12254048D01*
X16092619Y-12273095D01*
X16073571Y-12282619D01*
X16254524Y-12225476D02*
X16378333Y-12225476D01*
X16311667Y-12301667D01*
X16340238Y-12301667D01*
X16359286Y-12311190D01*
X16368809Y-12320714D01*
X16378333Y-12339762D01*
X16378333Y-12387381D01*
X16368809Y-12406428D01*
X16359286Y-12415952D01*
X16340238Y-12425476D01*
X16283095Y-12425476D01*
X16264048Y-12415952D01*
X16254524Y-12406428D01*
X16559286Y-12225476D02*
X16464048Y-12225476D01*
X16454524Y-12320714D01*
X16464048Y-12311190D01*
X16483095Y-12301667D01*
X16530714Y-12301667D01*
X16549762Y-12311190D01*
X16559286Y-12320714D01*
X16568809Y-12339762D01*
X16568809Y-12387381D01*
X16559286Y-12406428D01*
X16549762Y-12415952D01*
X16530714Y-12425476D01*
X16483095Y-12425476D01*
X16464048Y-12415952D01*
X16454524Y-12406428D01*
X16683095Y-12311190D02*
X16664048Y-12301667D01*
X16654524Y-12292143D01*
X16645000Y-12273095D01*
X16645000Y-12263571D01*
X16654524Y-12244524D01*
X16664048Y-12235000D01*
X16683095Y-12225476D01*
X16721190Y-12225476D01*
X16740238Y-12235000D01*
X16749762Y-12244524D01*
X16759286Y-12263571D01*
X16759286Y-12273095D01*
X16749762Y-12292143D01*
X16740238Y-12301667D01*
X16721190Y-12311190D01*
X16683095Y-12311190D01*
X16664048Y-12320714D01*
X16654524Y-12330238D01*
X16645000Y-12349286D01*
X16645000Y-12387381D01*
X16654524Y-12406428D01*
X16664048Y-12415952D01*
X16683095Y-12425476D01*
X16721190Y-12425476D01*
X16740238Y-12415952D01*
X16749762Y-12406428D01*
X16759286Y-12387381D01*
X16759286Y-12349286D01*
X16749762Y-12330238D01*
X16740238Y-12320714D01*
X16721190Y-12311190D01*
X16835476Y-12225476D02*
X16835476Y-12263571D01*
X16911667Y-12225476D02*
X16911667Y-12263571D01*
X17206905Y-12501667D02*
X17197381Y-12492143D01*
X17178333Y-12463571D01*
X17168810Y-12444524D01*
X17159286Y-12415952D01*
X17149762Y-12368333D01*
X17149762Y-12330238D01*
X17159286Y-12282619D01*
X17168810Y-12254048D01*
X17178333Y-12235000D01*
X17197381Y-12206428D01*
X17206905Y-12196905D01*
X17368810Y-12225476D02*
X17330714Y-12225476D01*
X17311667Y-12235000D01*
X17302143Y-12244524D01*
X17283095Y-12273095D01*
X17273571Y-12311190D01*
X17273571Y-12387381D01*
X17283095Y-12406428D01*
X17292619Y-12415952D01*
X17311667Y-12425476D01*
X17349762Y-12425476D01*
X17368810Y-12415952D01*
X17378333Y-12406428D01*
X17387857Y-12387381D01*
X17387857Y-12339762D01*
X17378333Y-12320714D01*
X17368810Y-12311190D01*
X17349762Y-12301667D01*
X17311667Y-12301667D01*
X17292619Y-12311190D01*
X17283095Y-12320714D01*
X17273571Y-12339762D01*
X17625952Y-12425476D02*
X17625952Y-12225476D01*
X17711667Y-12425476D02*
X17711667Y-12320714D01*
X17702143Y-12301667D01*
X17683095Y-12292143D01*
X17654524Y-12292143D01*
X17635476Y-12301667D01*
X17625952Y-12311190D01*
X17835476Y-12425476D02*
X17816429Y-12415952D01*
X17806905Y-12406428D01*
X17797381Y-12387381D01*
X17797381Y-12330238D01*
X17806905Y-12311190D01*
X17816429Y-12301667D01*
X17835476Y-12292143D01*
X17864048Y-12292143D01*
X17883095Y-12301667D01*
X17892619Y-12311190D01*
X17902143Y-12330238D01*
X17902143Y-12387381D01*
X17892619Y-12406428D01*
X17883095Y-12415952D01*
X17864048Y-12425476D01*
X17835476Y-12425476D01*
X18016429Y-12425476D02*
X17997381Y-12415952D01*
X17987857Y-12396905D01*
X17987857Y-12225476D01*
X18168810Y-12415952D02*
X18149762Y-12425476D01*
X18111667Y-12425476D01*
X18092619Y-12415952D01*
X18083095Y-12396905D01*
X18083095Y-12320714D01*
X18092619Y-12301667D01*
X18111667Y-12292143D01*
X18149762Y-12292143D01*
X18168810Y-12301667D01*
X18178333Y-12320714D01*
X18178333Y-12339762D01*
X18083095Y-12358809D01*
X18254524Y-12415952D02*
X18273571Y-12425476D01*
X18311667Y-12425476D01*
X18330714Y-12415952D01*
X18340238Y-12396905D01*
X18340238Y-12387381D01*
X18330714Y-12368333D01*
X18311667Y-12358809D01*
X18283095Y-12358809D01*
X18264048Y-12349286D01*
X18254524Y-12330238D01*
X18254524Y-12320714D01*
X18264048Y-12301667D01*
X18283095Y-12292143D01*
X18311667Y-12292143D01*
X18330714Y-12301667D01*
X18406905Y-12501667D02*
X18416429Y-12492143D01*
X18435476Y-12463571D01*
X18445000Y-12444524D01*
X18454524Y-12415952D01*
X18464048Y-12368333D01*
X18464048Y-12330238D01*
X18454524Y-12282619D01*
X18445000Y-12254048D01*
X18435476Y-12235000D01*
X18416429Y-12206428D01*
X18406905Y-12196905D01*
X18768810Y-12501667D02*
X18759286Y-12492143D01*
X18740238Y-12463571D01*
X18730714Y-12444524D01*
X18721190Y-12415952D01*
X18711667Y-12368333D01*
X18711667Y-12330238D01*
X18721190Y-12282619D01*
X18730714Y-12254048D01*
X18740238Y-12235000D01*
X18759286Y-12206428D01*
X18768810Y-12196905D01*
X18845000Y-12292143D02*
X18845000Y-12425476D01*
X18845000Y-12311190D02*
X18854524Y-12301667D01*
X18873571Y-12292143D01*
X18902143Y-12292143D01*
X18921190Y-12301667D01*
X18930714Y-12320714D01*
X18930714Y-12425476D01*
X19054524Y-12425476D02*
X19035476Y-12415952D01*
X19025952Y-12406428D01*
X19016429Y-12387381D01*
X19016429Y-12330238D01*
X19025952Y-12311190D01*
X19035476Y-12301667D01*
X19054524Y-12292143D01*
X19083095Y-12292143D01*
X19102143Y-12301667D01*
X19111667Y-12311190D01*
X19121190Y-12330238D01*
X19121190Y-12387381D01*
X19111667Y-12406428D01*
X19102143Y-12415952D01*
X19083095Y-12425476D01*
X19054524Y-12425476D01*
X19178333Y-12292143D02*
X19254524Y-12292143D01*
X19206905Y-12225476D02*
X19206905Y-12396905D01*
X19216429Y-12415952D01*
X19235476Y-12425476D01*
X19254524Y-12425476D01*
X19473571Y-12292143D02*
X19473571Y-12492143D01*
X19473571Y-12301667D02*
X19492619Y-12292143D01*
X19530714Y-12292143D01*
X19549762Y-12301667D01*
X19559286Y-12311190D01*
X19568810Y-12330238D01*
X19568810Y-12387381D01*
X19559286Y-12406428D01*
X19549762Y-12415952D01*
X19530714Y-12425476D01*
X19492619Y-12425476D01*
X19473571Y-12415952D01*
X19683095Y-12425476D02*
X19664048Y-12415952D01*
X19654524Y-12396905D01*
X19654524Y-12225476D01*
X19845000Y-12425476D02*
X19845000Y-12320714D01*
X19835476Y-12301667D01*
X19816429Y-12292143D01*
X19778333Y-12292143D01*
X19759286Y-12301667D01*
X19845000Y-12415952D02*
X19825952Y-12425476D01*
X19778333Y-12425476D01*
X19759286Y-12415952D01*
X19749762Y-12396905D01*
X19749762Y-12377857D01*
X19759286Y-12358809D01*
X19778333Y-12349286D01*
X19825952Y-12349286D01*
X19845000Y-12339762D01*
X19911667Y-12292143D02*
X19987857Y-12292143D01*
X19940238Y-12225476D02*
X19940238Y-12396905D01*
X19949762Y-12415952D01*
X19968810Y-12425476D01*
X19987857Y-12425476D01*
X20130714Y-12415952D02*
X20111667Y-12425476D01*
X20073571Y-12425476D01*
X20054524Y-12415952D01*
X20045000Y-12396905D01*
X20045000Y-12320714D01*
X20054524Y-12301667D01*
X20073571Y-12292143D01*
X20111667Y-12292143D01*
X20130714Y-12301667D01*
X20140238Y-12320714D01*
X20140238Y-12339762D01*
X20045000Y-12358809D01*
X20311667Y-12425476D02*
X20311667Y-12225476D01*
X20311667Y-12415952D02*
X20292619Y-12425476D01*
X20254524Y-12425476D01*
X20235476Y-12415952D01*
X20225952Y-12406428D01*
X20216429Y-12387381D01*
X20216429Y-12330238D01*
X20225952Y-12311190D01*
X20235476Y-12301667D01*
X20254524Y-12292143D01*
X20292619Y-12292143D01*
X20311667Y-12301667D01*
X20387857Y-12501667D02*
X20397381Y-12492143D01*
X20416429Y-12463571D01*
X20425952Y-12444524D01*
X20435476Y-12415952D01*
X20445000Y-12368333D01*
X20445000Y-12330238D01*
X20435476Y-12282619D01*
X20425952Y-12254048D01*
X20416429Y-12235000D01*
X20397381Y-12206428D01*
X20387857Y-12196905D01*
M02*
