G04 #@! TF.GenerationSoftware,KiCad,Pcbnew,(6.0.7-1)-1*
G04 #@! TF.CreationDate,2022-12-01T13:28:40-08:00*
G04 #@! TF.ProjectId,can-hub-pcb,63616e2d-6875-4622-9d70-63622e6b6963,rev?*
G04 #@! TF.SameCoordinates,Original*
G04 #@! TF.FileFunction,Legend,Top*
G04 #@! TF.FilePolarity,Positive*
%FSLAX46Y46*%
G04 Gerber Fmt 4.6, Leading zero omitted, Abs format (unit mm)*
G04 Created by KiCad (PCBNEW (6.0.7-1)-1) date 2022-12-01 13:28:40*
%MOMM*%
%LPD*%
G01*
G04 APERTURE LIST*
G04 Aperture macros list*
%AMRoundRect*
0 Rectangle with rounded corners*
0 $1 Rounding radius*
0 $2 $3 $4 $5 $6 $7 $8 $9 X,Y pos of 4 corners*
0 Add a 4 corners polygon primitive as box body*
4,1,4,$2,$3,$4,$5,$6,$7,$8,$9,$2,$3,0*
0 Add four circle primitives for the rounded corners*
1,1,$1+$1,$2,$3*
1,1,$1+$1,$4,$5*
1,1,$1+$1,$6,$7*
1,1,$1+$1,$8,$9*
0 Add four rect primitives between the rounded corners*
20,1,$1+$1,$2,$3,$4,$5,0*
20,1,$1+$1,$4,$5,$6,$7,0*
20,1,$1+$1,$6,$7,$8,$9,0*
20,1,$1+$1,$8,$9,$2,$3,0*%
%AMRotRect*
0 Rectangle, with rotation*
0 The origin of the aperture is its center*
0 $1 length*
0 $2 width*
0 $3 Rotation angle, in degrees counterclockwise*
0 Add horizontal line*
21,1,$1,$2,0,0,$3*%
G04 Aperture macros list end*
%ADD10C,0.150000*%
%ADD11C,0.254000*%
%ADD12C,0.120000*%
%ADD13C,0.100000*%
%ADD14R,1.700000X1.700000*%
%ADD15O,1.700000X1.700000*%
%ADD16RoundRect,0.250000X0.262500X0.450000X-0.262500X0.450000X-0.262500X-0.450000X0.262500X-0.450000X0*%
%ADD17R,1.000000X1.000000*%
%ADD18C,3.450000*%
%ADD19R,1.755000X1.755000*%
%ADD20C,1.755000*%
%ADD21C,3.200000*%
%ADD22RotRect,1.755000X1.755000X60.000000*%
%ADD23RotRect,1.755000X1.755000X300.000000*%
G04 APERTURE END LIST*
D10*
X164764166Y-96316666D02*
X164764166Y-96883333D01*
X164797500Y-96950000D01*
X164830833Y-96983333D01*
X164897500Y-97016666D01*
X165030833Y-97016666D01*
X165097500Y-96983333D01*
X165130833Y-96950000D01*
X165164166Y-96883333D01*
X165164166Y-96316666D01*
X165730833Y-96650000D02*
X165830833Y-96683333D01*
X165864166Y-96716666D01*
X165897500Y-96783333D01*
X165897500Y-96883333D01*
X165864166Y-96950000D01*
X165830833Y-96983333D01*
X165764166Y-97016666D01*
X165497500Y-97016666D01*
X165497500Y-96316666D01*
X165730833Y-96316666D01*
X165797500Y-96350000D01*
X165830833Y-96383333D01*
X165864166Y-96450000D01*
X165864166Y-96516666D01*
X165830833Y-96583333D01*
X165797500Y-96616666D01*
X165730833Y-96650000D01*
X165497500Y-96650000D01*
X166597500Y-96950000D02*
X166564166Y-96983333D01*
X166464166Y-97016666D01*
X166397500Y-97016666D01*
X166297500Y-96983333D01*
X166230833Y-96916666D01*
X166197500Y-96850000D01*
X166164166Y-96716666D01*
X166164166Y-96616666D01*
X166197500Y-96483333D01*
X166230833Y-96416666D01*
X166297500Y-96350000D01*
X166397500Y-96316666D01*
X166464166Y-96316666D01*
X166564166Y-96350000D01*
X166597500Y-96383333D01*
X167397500Y-96983333D02*
X167497500Y-97016666D01*
X167664166Y-97016666D01*
X167730833Y-96983333D01*
X167764166Y-96950000D01*
X167797500Y-96883333D01*
X167797500Y-96816666D01*
X167764166Y-96750000D01*
X167730833Y-96716666D01*
X167664166Y-96683333D01*
X167530833Y-96650000D01*
X167464166Y-96616666D01*
X167430833Y-96583333D01*
X167397500Y-96516666D01*
X167397500Y-96450000D01*
X167430833Y-96383333D01*
X167464166Y-96350000D01*
X167530833Y-96316666D01*
X167697500Y-96316666D01*
X167797500Y-96350000D01*
X168397500Y-96550000D02*
X168397500Y-97016666D01*
X168097500Y-96550000D02*
X168097500Y-96916666D01*
X168130833Y-96983333D01*
X168197500Y-97016666D01*
X168297500Y-97016666D01*
X168364166Y-96983333D01*
X168397500Y-96950000D01*
X168730833Y-96550000D02*
X168730833Y-97250000D01*
X168730833Y-96583333D02*
X168797500Y-96550000D01*
X168930833Y-96550000D01*
X168997500Y-96583333D01*
X169030833Y-96616666D01*
X169064166Y-96683333D01*
X169064166Y-96883333D01*
X169030833Y-96950000D01*
X168997500Y-96983333D01*
X168930833Y-97016666D01*
X168797500Y-97016666D01*
X168730833Y-96983333D01*
X169630833Y-96983333D02*
X169564166Y-97016666D01*
X169430833Y-97016666D01*
X169364166Y-96983333D01*
X169330833Y-96916666D01*
X169330833Y-96650000D01*
X169364166Y-96583333D01*
X169430833Y-96550000D01*
X169564166Y-96550000D01*
X169630833Y-96583333D01*
X169664166Y-96650000D01*
X169664166Y-96716666D01*
X169330833Y-96783333D01*
X169964166Y-97016666D02*
X169964166Y-96550000D01*
X169964166Y-96683333D02*
X169997500Y-96616666D01*
X170030833Y-96583333D01*
X170097500Y-96550000D01*
X170164166Y-96550000D01*
X170397500Y-97016666D02*
X170397500Y-96550000D01*
X170397500Y-96616666D02*
X170430833Y-96583333D01*
X170497500Y-96550000D01*
X170597500Y-96550000D01*
X170664166Y-96583333D01*
X170697500Y-96650000D01*
X170697500Y-97016666D01*
X170697500Y-96650000D02*
X170730833Y-96583333D01*
X170797500Y-96550000D01*
X170897500Y-96550000D01*
X170964166Y-96583333D01*
X170997500Y-96650000D01*
X170997500Y-97016666D01*
X171330833Y-97016666D02*
X171330833Y-96550000D01*
X171330833Y-96316666D02*
X171297500Y-96350000D01*
X171330833Y-96383333D01*
X171364166Y-96350000D01*
X171330833Y-96316666D01*
X171330833Y-96383333D01*
X171764166Y-97016666D02*
X171697500Y-96983333D01*
X171664166Y-96916666D01*
X171664166Y-96316666D01*
X172297500Y-96983333D02*
X172230833Y-97016666D01*
X172097500Y-97016666D01*
X172030833Y-96983333D01*
X171997500Y-96916666D01*
X171997500Y-96650000D01*
X172030833Y-96583333D01*
X172097500Y-96550000D01*
X172230833Y-96550000D01*
X172297500Y-96583333D01*
X172330833Y-96650000D01*
X172330833Y-96716666D01*
X171997500Y-96783333D01*
X172930833Y-97016666D02*
X172930833Y-96650000D01*
X172897500Y-96583333D01*
X172830833Y-96550000D01*
X172697500Y-96550000D01*
X172630833Y-96583333D01*
X172930833Y-96983333D02*
X172864166Y-97016666D01*
X172697500Y-97016666D01*
X172630833Y-96983333D01*
X172597500Y-96916666D01*
X172597500Y-96850000D01*
X172630833Y-96783333D01*
X172697500Y-96750000D01*
X172864166Y-96750000D01*
X172930833Y-96716666D01*
X173564166Y-96550000D02*
X173564166Y-97116666D01*
X173530833Y-97183333D01*
X173497500Y-97216666D01*
X173430833Y-97250000D01*
X173330833Y-97250000D01*
X173264166Y-97216666D01*
X173564166Y-96983333D02*
X173497500Y-97016666D01*
X173364166Y-97016666D01*
X173297500Y-96983333D01*
X173264166Y-96950000D01*
X173230833Y-96883333D01*
X173230833Y-96683333D01*
X173264166Y-96616666D01*
X173297500Y-96583333D01*
X173364166Y-96550000D01*
X173497500Y-96550000D01*
X173564166Y-96583333D01*
X174164166Y-96983333D02*
X174097500Y-97016666D01*
X173964166Y-97016666D01*
X173897500Y-96983333D01*
X173864166Y-96916666D01*
X173864166Y-96650000D01*
X173897500Y-96583333D01*
X173964166Y-96550000D01*
X174097500Y-96550000D01*
X174164166Y-96583333D01*
X174197500Y-96650000D01*
X174197500Y-96716666D01*
X173864166Y-96783333D01*
X152761904Y-100500000D02*
X152666666Y-100452380D01*
X152523809Y-100452380D01*
X152380952Y-100500000D01*
X152285714Y-100595238D01*
X152238095Y-100690476D01*
X152190476Y-100880952D01*
X152190476Y-101023809D01*
X152238095Y-101214285D01*
X152285714Y-101309523D01*
X152380952Y-101404761D01*
X152523809Y-101452380D01*
X152619047Y-101452380D01*
X152761904Y-101404761D01*
X152809523Y-101357142D01*
X152809523Y-101023809D01*
X152619047Y-101023809D01*
X153809523Y-103452380D02*
X153333333Y-103452380D01*
X153333333Y-102452380D01*
X162761904Y-100000000D02*
X162666666Y-99952380D01*
X162523809Y-99952380D01*
X162380952Y-100000000D01*
X162285714Y-100095238D01*
X162238095Y-100190476D01*
X162190476Y-100380952D01*
X162190476Y-100523809D01*
X162238095Y-100714285D01*
X162285714Y-100809523D01*
X162380952Y-100904761D01*
X162523809Y-100952380D01*
X162619047Y-100952380D01*
X162761904Y-100904761D01*
X162809523Y-100857142D01*
X162809523Y-100523809D01*
X162619047Y-100523809D01*
X155309523Y-95452380D02*
X154833333Y-95452380D01*
X154833333Y-94452380D01*
X161214285Y-103452380D02*
X161214285Y-102452380D01*
X161214285Y-102928571D02*
X161785714Y-102928571D01*
X161785714Y-103452380D02*
X161785714Y-102452380D01*
X168230833Y-97383333D02*
X168264166Y-97350000D01*
X168330833Y-97316666D01*
X168497500Y-97316666D01*
X168564166Y-97350000D01*
X168597500Y-97383333D01*
X168630833Y-97450000D01*
X168630833Y-97516666D01*
X168597500Y-97616666D01*
X168197500Y-98016666D01*
X168630833Y-98016666D01*
X169064166Y-97316666D02*
X169130833Y-97316666D01*
X169197500Y-97350000D01*
X169230833Y-97383333D01*
X169264166Y-97450000D01*
X169297500Y-97583333D01*
X169297500Y-97750000D01*
X169264166Y-97883333D01*
X169230833Y-97950000D01*
X169197500Y-97983333D01*
X169130833Y-98016666D01*
X169064166Y-98016666D01*
X168997500Y-97983333D01*
X168964166Y-97950000D01*
X168930833Y-97883333D01*
X168897500Y-97750000D01*
X168897500Y-97583333D01*
X168930833Y-97450000D01*
X168964166Y-97383333D01*
X168997500Y-97350000D01*
X169064166Y-97316666D01*
X169564166Y-97383333D02*
X169597500Y-97350000D01*
X169664166Y-97316666D01*
X169830833Y-97316666D01*
X169897500Y-97350000D01*
X169930833Y-97383333D01*
X169964166Y-97450000D01*
X169964166Y-97516666D01*
X169930833Y-97616666D01*
X169530833Y-98016666D01*
X169964166Y-98016666D01*
X170230833Y-97383333D02*
X170264166Y-97350000D01*
X170330833Y-97316666D01*
X170497500Y-97316666D01*
X170564166Y-97350000D01*
X170597500Y-97383333D01*
X170630833Y-97450000D01*
X170630833Y-97516666D01*
X170597500Y-97616666D01*
X170197500Y-98016666D01*
X170630833Y-98016666D01*
X157761904Y-94500000D02*
X157666666Y-94452380D01*
X157523809Y-94452380D01*
X157380952Y-94500000D01*
X157285714Y-94595238D01*
X157238095Y-94690476D01*
X157190476Y-94880952D01*
X157190476Y-95023809D01*
X157238095Y-95214285D01*
X157285714Y-95309523D01*
X157380952Y-95404761D01*
X157523809Y-95452380D01*
X157619047Y-95452380D01*
X157761904Y-95404761D01*
X157809523Y-95357142D01*
X157809523Y-95023809D01*
X157619047Y-95023809D01*
X150714285Y-98952380D02*
X150714285Y-97952380D01*
X150714285Y-98428571D02*
X151285714Y-98428571D01*
X151285714Y-98952380D02*
X151285714Y-97952380D01*
X164309523Y-98452380D02*
X163833333Y-98452380D01*
X163833333Y-97452380D01*
X159714285Y-95452380D02*
X159714285Y-94452380D01*
X159714285Y-94928571D02*
X160285714Y-94928571D01*
X160285714Y-95452380D02*
X160285714Y-94452380D01*
X145664166Y-96116666D02*
X146064166Y-96116666D01*
X145864166Y-96816666D02*
X145864166Y-96116666D01*
X146697500Y-96816666D02*
X146464166Y-96483333D01*
X146297500Y-96816666D02*
X146297500Y-96116666D01*
X146564166Y-96116666D01*
X146630833Y-96150000D01*
X146664166Y-96183333D01*
X146697500Y-96250000D01*
X146697500Y-96350000D01*
X146664166Y-96416666D01*
X146630833Y-96450000D01*
X146564166Y-96483333D01*
X146297500Y-96483333D01*
X146997500Y-96816666D02*
X146997500Y-96116666D01*
X147330833Y-96550000D02*
X147864166Y-96550000D01*
X148197500Y-96816666D02*
X148197500Y-96116666D01*
X148197500Y-96450000D02*
X148597500Y-96450000D01*
X148597500Y-96816666D02*
X148597500Y-96116666D01*
X148930833Y-96116666D02*
X148930833Y-96683333D01*
X148964166Y-96750000D01*
X148997500Y-96783333D01*
X149064166Y-96816666D01*
X149197500Y-96816666D01*
X149264166Y-96783333D01*
X149297500Y-96750000D01*
X149330833Y-96683333D01*
X149330833Y-96116666D01*
X149897500Y-96450000D02*
X149997500Y-96483333D01*
X150030833Y-96516666D01*
X150064166Y-96583333D01*
X150064166Y-96683333D01*
X150030833Y-96750000D01*
X149997500Y-96783333D01*
X149930833Y-96816666D01*
X149664166Y-96816666D01*
X149664166Y-96116666D01*
X149897500Y-96116666D01*
X149964166Y-96150000D01*
X149997500Y-96183333D01*
X150030833Y-96250000D01*
X150030833Y-96316666D01*
X149997500Y-96383333D01*
X149964166Y-96416666D01*
X149897500Y-96450000D01*
X149664166Y-96450000D01*
X150364166Y-96750000D02*
X150397500Y-96783333D01*
X150364166Y-96816666D01*
X150330833Y-96783333D01*
X150364166Y-96750000D01*
X150364166Y-96816666D01*
X150364166Y-96383333D02*
X150397500Y-96416666D01*
X150364166Y-96450000D01*
X150330833Y-96416666D01*
X150364166Y-96383333D01*
X150364166Y-96450000D01*
X151630833Y-96750000D02*
X151597500Y-96783333D01*
X151497500Y-96816666D01*
X151430833Y-96816666D01*
X151330833Y-96783333D01*
X151264166Y-96716666D01*
X151230833Y-96650000D01*
X151197500Y-96516666D01*
X151197500Y-96416666D01*
X151230833Y-96283333D01*
X151264166Y-96216666D01*
X151330833Y-96150000D01*
X151430833Y-96116666D01*
X151497500Y-96116666D01*
X151597500Y-96150000D01*
X151630833Y-96183333D01*
X151897500Y-96616666D02*
X152230833Y-96616666D01*
X151830833Y-96816666D02*
X152064166Y-96116666D01*
X152297500Y-96816666D01*
X152530833Y-96816666D02*
X152530833Y-96116666D01*
X152930833Y-96816666D01*
X152930833Y-96116666D01*
X159266666Y-99116666D02*
X159266666Y-99616666D01*
X159233333Y-99716666D01*
X159166666Y-99783333D01*
X159066666Y-99816666D01*
X159000000Y-99816666D01*
X159900000Y-99350000D02*
X159900000Y-99816666D01*
X159733333Y-99083333D02*
X159566666Y-99583333D01*
X160000000Y-99583333D01*
X155250000Y-101550000D02*
X155283333Y-101583333D01*
X155316666Y-101683333D01*
X155316666Y-101750000D01*
X155283333Y-101850000D01*
X155216666Y-101916666D01*
X155150000Y-101950000D01*
X155016666Y-101983333D01*
X154916666Y-101983333D01*
X154783333Y-101950000D01*
X154716666Y-101916666D01*
X154650000Y-101850000D01*
X154616666Y-101750000D01*
X154616666Y-101683333D01*
X154650000Y-101583333D01*
X154683333Y-101550000D01*
X155116666Y-101283333D02*
X155116666Y-100950000D01*
X155316666Y-101350000D02*
X154616666Y-101116666D01*
X155316666Y-100883333D01*
X155316666Y-100650000D02*
X154616666Y-100650000D01*
X155316666Y-100250000D01*
X154616666Y-100250000D01*
X155383333Y-100083333D02*
X155383333Y-99550000D01*
X154616666Y-99483333D02*
X154616666Y-99083333D01*
X155316666Y-99283333D02*
X154616666Y-99283333D01*
X154950000Y-98850000D02*
X154950000Y-98616666D01*
X155316666Y-98516666D02*
X155316666Y-98850000D01*
X154616666Y-98850000D01*
X154616666Y-98516666D01*
X155316666Y-97816666D02*
X154983333Y-98050000D01*
X155316666Y-98216666D02*
X154616666Y-98216666D01*
X154616666Y-97950000D01*
X154650000Y-97883333D01*
X154683333Y-97850000D01*
X154750000Y-97816666D01*
X154850000Y-97816666D01*
X154916666Y-97850000D01*
X154950000Y-97883333D01*
X154983333Y-97950000D01*
X154983333Y-98216666D01*
X155316666Y-97516666D02*
X154616666Y-97516666D01*
X155116666Y-97283333D01*
X154616666Y-97050000D01*
X155316666Y-97050000D01*
X157383333Y-103316666D02*
X157150000Y-102983333D01*
X156983333Y-103316666D02*
X156983333Y-102616666D01*
X157250000Y-102616666D01*
X157316666Y-102650000D01*
X157350000Y-102683333D01*
X157383333Y-102750000D01*
X157383333Y-102850000D01*
X157350000Y-102916666D01*
X157316666Y-102950000D01*
X157250000Y-102983333D01*
X156983333Y-102983333D01*
X158050000Y-103316666D02*
X157650000Y-103316666D01*
X157850000Y-103316666D02*
X157850000Y-102616666D01*
X157783333Y-102716666D01*
X157716666Y-102783333D01*
X157650000Y-102816666D01*
X157033333Y-106316666D02*
X156633333Y-106316666D01*
X156833333Y-106316666D02*
X156833333Y-105616666D01*
X156766666Y-105716666D01*
X156700000Y-105783333D01*
X156633333Y-105816666D01*
X157300000Y-105683333D02*
X157333333Y-105650000D01*
X157400000Y-105616666D01*
X157566666Y-105616666D01*
X157633333Y-105650000D01*
X157666666Y-105683333D01*
X157700000Y-105750000D01*
X157700000Y-105816666D01*
X157666666Y-105916666D01*
X157266666Y-106316666D01*
X157700000Y-106316666D01*
X158133333Y-105616666D02*
X158200000Y-105616666D01*
X158266666Y-105650000D01*
X158300000Y-105683333D01*
X158333333Y-105750000D01*
X158366666Y-105883333D01*
X158366666Y-106050000D01*
X158333333Y-106183333D01*
X158300000Y-106250000D01*
X158266666Y-106283333D01*
X158200000Y-106316666D01*
X158133333Y-106316666D01*
X158066666Y-106283333D01*
X158033333Y-106250000D01*
X158000000Y-106183333D01*
X157966666Y-106050000D01*
X157966666Y-105883333D01*
X158000000Y-105750000D01*
X158033333Y-105683333D01*
X158066666Y-105650000D01*
X158133333Y-105616666D01*
X151000000Y-110750000D02*
X150966666Y-110783333D01*
X150866666Y-110816666D01*
X150800000Y-110816666D01*
X150700000Y-110783333D01*
X150633333Y-110716666D01*
X150600000Y-110650000D01*
X150566666Y-110516666D01*
X150566666Y-110416666D01*
X150600000Y-110283333D01*
X150633333Y-110216666D01*
X150700000Y-110150000D01*
X150800000Y-110116666D01*
X150866666Y-110116666D01*
X150966666Y-110150000D01*
X151000000Y-110183333D01*
X151266666Y-110616666D02*
X151600000Y-110616666D01*
X151200000Y-110816666D02*
X151433333Y-110116666D01*
X151666666Y-110816666D01*
X151900000Y-110816666D02*
X151900000Y-110116666D01*
X152300000Y-110816666D01*
X152300000Y-110116666D01*
X152466666Y-110883333D02*
X153000000Y-110883333D01*
X153500000Y-110816666D02*
X153166666Y-110816666D01*
X153166666Y-110116666D01*
D11*
X157076666Y-86304523D02*
X157076666Y-87211666D01*
X157016190Y-87393095D01*
X156895238Y-87514047D01*
X156713809Y-87574523D01*
X156592857Y-87574523D01*
X157560476Y-86304523D02*
X158346666Y-86304523D01*
X157923333Y-86788333D01*
X158104761Y-86788333D01*
X158225714Y-86848809D01*
X158286190Y-86909285D01*
X158346666Y-87030238D01*
X158346666Y-87332619D01*
X158286190Y-87453571D01*
X158225714Y-87514047D01*
X158104761Y-87574523D01*
X157741904Y-87574523D01*
X157620952Y-87514047D01*
X157560476Y-87453571D01*
X168534382Y-104613584D02*
X169319991Y-105067155D01*
X169446874Y-105210243D01*
X169491146Y-105375467D01*
X169452805Y-105562827D01*
X169392329Y-105667575D01*
X168911272Y-104202695D02*
X168889137Y-104120083D01*
X168897239Y-103985097D01*
X169048429Y-103723227D01*
X169161280Y-103648717D01*
X169243892Y-103626582D01*
X169378877Y-103634684D01*
X169483625Y-103695160D01*
X169610509Y-103838248D01*
X169876139Y-104829592D01*
X170269234Y-104148732D01*
X145261017Y-105308650D02*
X146046626Y-104855079D01*
X146233986Y-104816738D01*
X146399210Y-104861010D01*
X146542298Y-104987894D01*
X146602774Y-105092641D01*
X145725869Y-103573798D02*
X146088727Y-104202285D01*
X145907298Y-103888041D02*
X144807446Y-104523041D01*
X145025044Y-104537075D01*
X145190268Y-104581346D01*
X145303118Y-104655856D01*
D10*
X164966666Y-86150000D02*
X164900000Y-86116666D01*
X164800000Y-86116666D01*
X164700000Y-86150000D01*
X164633333Y-86216666D01*
X164600000Y-86283333D01*
X164566666Y-86416666D01*
X164566666Y-86516666D01*
X164600000Y-86650000D01*
X164633333Y-86716666D01*
X164700000Y-86783333D01*
X164800000Y-86816666D01*
X164866666Y-86816666D01*
X164966666Y-86783333D01*
X165000000Y-86750000D01*
X165000000Y-86516666D01*
X164866666Y-86516666D01*
X165300000Y-86816666D02*
X165300000Y-86116666D01*
X165700000Y-86816666D01*
X165700000Y-86116666D01*
X166033333Y-86816666D02*
X166033333Y-86116666D01*
X166200000Y-86116666D01*
X166300000Y-86150000D01*
X166366666Y-86216666D01*
X166400000Y-86283333D01*
X166433333Y-86416666D01*
X166433333Y-86516666D01*
X166400000Y-86650000D01*
X166366666Y-86716666D01*
X166300000Y-86783333D01*
X166200000Y-86816666D01*
X166033333Y-86816666D01*
X161416666Y-110750000D02*
X161383333Y-110783333D01*
X161283333Y-110816666D01*
X161216666Y-110816666D01*
X161116666Y-110783333D01*
X161050000Y-110716666D01*
X161016666Y-110650000D01*
X160983333Y-110516666D01*
X160983333Y-110416666D01*
X161016666Y-110283333D01*
X161050000Y-110216666D01*
X161116666Y-110150000D01*
X161216666Y-110116666D01*
X161283333Y-110116666D01*
X161383333Y-110150000D01*
X161416666Y-110183333D01*
X161683333Y-110616666D02*
X162016666Y-110616666D01*
X161616666Y-110816666D02*
X161850000Y-110116666D01*
X162083333Y-110816666D01*
X162316666Y-110816666D02*
X162316666Y-110116666D01*
X162716666Y-110816666D01*
X162716666Y-110116666D01*
X162883333Y-110883333D02*
X163416666Y-110883333D01*
X163583333Y-110816666D02*
X163583333Y-110116666D01*
X163583333Y-110450000D02*
X163983333Y-110450000D01*
X163983333Y-110816666D02*
X163983333Y-110116666D01*
D12*
X158830000Y-102105000D02*
X157500000Y-102105000D01*
X158830000Y-99505000D02*
X158830000Y-96905000D01*
X158830000Y-99505000D02*
X156170000Y-99505000D01*
X158830000Y-100775000D02*
X158830000Y-102105000D01*
X156170000Y-99505000D02*
X156170000Y-96905000D01*
X158830000Y-96905000D02*
X156170000Y-96905000D01*
X157727064Y-103765000D02*
X157272936Y-103765000D01*
X157727064Y-105235000D02*
X157272936Y-105235000D01*
X151300000Y-112700000D02*
X151300000Y-111300000D01*
X152700000Y-111300000D02*
X152700000Y-112700000D01*
X152700000Y-112700000D02*
X151300000Y-112700000D01*
X151300000Y-111300000D02*
X152700000Y-111300000D01*
D13*
X161565000Y-80126000D02*
X153500000Y-80126000D01*
X153435000Y-81866000D02*
X153435000Y-81866000D01*
X161565000Y-93716000D02*
X161565000Y-93716000D01*
X153500000Y-80126000D02*
X161565000Y-80126000D01*
X153435000Y-87116000D02*
X153435000Y-93716000D01*
X153500000Y-80126000D02*
X153500000Y-80126000D01*
X161565000Y-93716000D02*
X161565000Y-86866000D01*
X161565000Y-80126000D02*
X161565000Y-80126000D01*
X161565000Y-80126000D02*
X161565000Y-81866000D01*
X153435000Y-80116000D02*
X153435000Y-81866000D01*
X161565000Y-81866000D02*
X161565000Y-81866000D01*
X161565000Y-86866000D02*
X161565000Y-93716000D01*
X153435000Y-81866000D02*
X153435000Y-80116000D01*
X153435000Y-87116000D02*
X153435000Y-87116000D01*
X161565000Y-81866000D02*
X161565000Y-80126000D01*
X153435000Y-80116000D02*
X153435000Y-80116000D01*
X153435000Y-93716000D02*
X153435000Y-93716000D01*
X161565000Y-86866000D02*
X161565000Y-86866000D01*
X153435000Y-93716000D02*
X153435000Y-87116000D01*
X161565000Y-80126000D02*
X161565000Y-80126000D01*
X173268907Y-111552098D02*
X173268907Y-111552098D01*
X175827023Y-103641311D02*
X177342567Y-104516311D01*
X177342567Y-104516311D02*
X175827023Y-103641311D01*
X177301407Y-104567603D02*
X177301407Y-104567603D01*
X167431896Y-108182098D02*
X161499622Y-104757098D01*
X171762023Y-110682098D02*
X171762023Y-110682098D01*
X171762023Y-110682098D02*
X173268907Y-111552098D01*
X161499622Y-104757098D02*
X167431896Y-108182098D01*
X165564622Y-97716311D02*
X171280390Y-101016311D01*
X177342567Y-104516311D02*
X177342567Y-104516311D01*
X161499622Y-104757098D02*
X161499622Y-104757098D01*
X173268907Y-111552098D02*
X177301407Y-104567603D01*
X177301407Y-104567603D02*
X173268907Y-111552098D01*
X167431896Y-108182098D02*
X167431896Y-108182098D01*
X171280390Y-101016311D02*
X165564622Y-97716311D01*
X165564622Y-97716311D02*
X165564622Y-97716311D01*
X171280390Y-101016311D02*
X171280390Y-101016311D01*
X173268907Y-111552098D02*
X173268907Y-111552098D01*
X173268907Y-111552098D02*
X171762023Y-110682098D01*
X175827023Y-103641311D02*
X175827023Y-103641311D01*
X143503104Y-101140902D02*
X149435378Y-97715902D01*
X143237977Y-110681689D02*
X143237977Y-110681689D01*
X139172977Y-103640902D02*
X139172977Y-103640902D01*
X137666093Y-104510902D02*
X141698593Y-111495397D01*
X141698593Y-111495397D02*
X141698593Y-111495397D01*
X137666093Y-104510902D02*
X137666093Y-104510902D01*
X153500378Y-104756689D02*
X147784610Y-108056689D01*
X143237977Y-110681689D02*
X141722433Y-111556689D01*
X141698593Y-111495397D02*
X137666093Y-104510902D01*
X141722433Y-111556689D02*
X141722433Y-111556689D01*
X147784610Y-108056689D02*
X147784610Y-108056689D01*
X153500378Y-104756689D02*
X153500378Y-104756689D01*
X147784610Y-108056689D02*
X153500378Y-104756689D01*
X149435378Y-97715902D02*
X149435378Y-97715902D01*
X141722433Y-111556689D02*
X143237977Y-110681689D01*
X143503104Y-101140902D02*
X143503104Y-101140902D01*
X137666093Y-104510902D02*
X139172977Y-103640902D01*
X137666093Y-104510902D02*
X137666093Y-104510902D01*
X139172977Y-103640902D02*
X137666093Y-104510902D01*
X149435378Y-97715902D02*
X143503104Y-101140902D01*
D12*
X166200000Y-87300000D02*
X166200000Y-88700000D01*
X166200000Y-88700000D02*
X164800000Y-88700000D01*
X164800000Y-87300000D02*
X166200000Y-87300000D01*
X164800000Y-88700000D02*
X164800000Y-87300000D01*
X161800000Y-112700000D02*
X161800000Y-111300000D01*
X161800000Y-111300000D02*
X163200000Y-111300000D01*
X163200000Y-111300000D02*
X163200000Y-112700000D01*
X163200000Y-112700000D02*
X161800000Y-112700000D01*
%LPC*%
D10*
X139684519Y-100198242D02*
X139768073Y-100133978D01*
X139861272Y-99995805D01*
X139870917Y-99921896D01*
X139861922Y-99875622D01*
X139825293Y-99810708D01*
X139770024Y-99773428D01*
X139696115Y-99763783D01*
X139649840Y-99772778D01*
X139584926Y-99809407D01*
X139482733Y-99901306D01*
X139417819Y-99937935D01*
X139371544Y-99946930D01*
X139297635Y-99937285D01*
X139242366Y-99900006D01*
X139205737Y-99835092D01*
X139196742Y-99788817D01*
X139206387Y-99714908D01*
X139299586Y-99576735D01*
X139383140Y-99512471D01*
X140103589Y-99636555D02*
X139716705Y-99375599D01*
X139523263Y-99245120D02*
X139532258Y-99291395D01*
X139578532Y-99282400D01*
X139569537Y-99236126D01*
X139523263Y-99245120D01*
X139578532Y-99282400D01*
X140345906Y-99277306D02*
X140280992Y-99313935D01*
X140207083Y-99304290D01*
X139709660Y-98968774D01*
X140070860Y-98850542D02*
X140550943Y-98973325D01*
X140257258Y-98574196D01*
X140793260Y-98614076D02*
X140406376Y-98353119D01*
X140212934Y-98222641D02*
X140221929Y-98268915D01*
X140268203Y-98259920D01*
X140259208Y-98213646D01*
X140212934Y-98222641D01*
X140268203Y-98259920D01*
X140760532Y-97828062D02*
X141147416Y-98089019D01*
X140592774Y-98076773D02*
X140896754Y-98281811D01*
X140970663Y-98291456D01*
X141035577Y-98254826D01*
X141091497Y-98171922D01*
X141101142Y-98098013D01*
X141092147Y-98051739D01*
X140995804Y-97061988D02*
X141219481Y-96730373D01*
X141687969Y-97287616D02*
X141107643Y-96896181D01*
X141986205Y-96845462D02*
X141921291Y-96882092D01*
X141875017Y-96891086D01*
X141801108Y-96881442D01*
X141635300Y-96769603D01*
X141598671Y-96704689D01*
X141589676Y-96658414D01*
X141599321Y-96584506D01*
X141655240Y-96501602D01*
X141720154Y-96464972D01*
X141766429Y-96455978D01*
X141840338Y-96465622D01*
X142006145Y-96577461D01*
X142042775Y-96642375D01*
X142051769Y-96688650D01*
X142042125Y-96762558D01*
X141986205Y-96845462D01*
X142452199Y-96154598D02*
X141871873Y-95763163D01*
X142424565Y-96135958D02*
X142414920Y-96209867D01*
X142340361Y-96320405D01*
X142275447Y-96357035D01*
X142229172Y-96366029D01*
X142155263Y-96356384D01*
X141989456Y-96244546D01*
X141952826Y-96179632D01*
X141943832Y-96133357D01*
X141953477Y-96059448D01*
X142028036Y-95948910D01*
X142092950Y-95912281D01*
X142760080Y-95638535D02*
X142750436Y-95712444D01*
X142675876Y-95822983D01*
X142610962Y-95859612D01*
X142537053Y-95849967D01*
X142315977Y-95700849D01*
X142279347Y-95635935D01*
X142288992Y-95562026D01*
X142363551Y-95451488D01*
X142428465Y-95414858D01*
X142502374Y-95424503D01*
X142557644Y-95461783D01*
X142426515Y-95775408D01*
X142974113Y-95380829D02*
X142587228Y-95119872D01*
X142697767Y-95194432D02*
X142661137Y-95129517D01*
X142652143Y-95083243D01*
X142661788Y-95009334D01*
X142699067Y-94954065D01*
X143216430Y-95021580D02*
X142829545Y-94760623D01*
X142636103Y-94630145D02*
X142645098Y-94676419D01*
X142691372Y-94667424D01*
X142682378Y-94621150D01*
X142636103Y-94630145D01*
X142691372Y-94667424D01*
X142960024Y-94567181D02*
X143109142Y-94346104D01*
X142822501Y-94353799D02*
X143319923Y-94689314D01*
X143393832Y-94698959D01*
X143458747Y-94662330D01*
X143496026Y-94607061D01*
X143794262Y-94164907D02*
X143490282Y-93959870D01*
X143416373Y-93950225D01*
X143351459Y-93986854D01*
X143276900Y-94097393D01*
X143267255Y-94171302D01*
X143766628Y-94146268D02*
X143756983Y-94220177D01*
X143663784Y-94358350D01*
X143598870Y-94394979D01*
X143524961Y-94385334D01*
X143469692Y-94348054D01*
X143433062Y-94283140D01*
X143442707Y-94209231D01*
X143535906Y-94071058D01*
X143545551Y-93997150D01*
D14*
X157500000Y-100775000D03*
D15*
X157500000Y-98235000D03*
D16*
X158412500Y-104500000D03*
X156587500Y-104500000D03*
D17*
X152000000Y-112000000D03*
D18*
X161310000Y-84366000D03*
X153690000Y-84366000D03*
D19*
X154960000Y-93006000D03*
D20*
X157500000Y-93006000D03*
X160040000Y-93006000D03*
D21*
X157500000Y-110500000D03*
D18*
X169724459Y-109211261D03*
X173534459Y-102612148D03*
D22*
X165417000Y-99392000D03*
D20*
X164147000Y-101591705D03*
X162877000Y-103791409D03*
D18*
X145275541Y-109210852D03*
X141465541Y-102611739D03*
D23*
X152123000Y-103791000D03*
D20*
X150853000Y-101591295D03*
X149583000Y-99391591D03*
D17*
X165500000Y-88000000D03*
X162500000Y-112000000D03*
D21*
X168000000Y-92000000D03*
X147000000Y-92000000D03*
M02*
