G04 #@! TF.GenerationSoftware,KiCad,Pcbnew,(6.0.7-1)-1*
G04 #@! TF.CreationDate,2022-12-01T13:28:40-08:00*
G04 #@! TF.ProjectId,can-hub-pcb,63616e2d-6875-4622-9d70-63622e6b6963,rev?*
G04 #@! TF.SameCoordinates,Original*
G04 #@! TF.FileFunction,Soldermask,Top*
G04 #@! TF.FilePolarity,Negative*
%FSLAX46Y46*%
G04 Gerber Fmt 4.6, Leading zero omitted, Abs format (unit mm)*
G04 Created by KiCad (PCBNEW (6.0.7-1)-1) date 2022-12-01 13:28:40*
%MOMM*%
%LPD*%
G01*
G04 APERTURE LIST*
G04 Aperture macros list*
%AMRoundRect*
0 Rectangle with rounded corners*
0 $1 Rounding radius*
0 $2 $3 $4 $5 $6 $7 $8 $9 X,Y pos of 4 corners*
0 Add a 4 corners polygon primitive as box body*
4,1,4,$2,$3,$4,$5,$6,$7,$8,$9,$2,$3,0*
0 Add four circle primitives for the rounded corners*
1,1,$1+$1,$2,$3*
1,1,$1+$1,$4,$5*
1,1,$1+$1,$6,$7*
1,1,$1+$1,$8,$9*
0 Add four rect primitives between the rounded corners*
20,1,$1+$1,$2,$3,$4,$5,0*
20,1,$1+$1,$4,$5,$6,$7,0*
20,1,$1+$1,$6,$7,$8,$9,0*
20,1,$1+$1,$8,$9,$2,$3,0*%
%AMRotRect*
0 Rectangle, with rotation*
0 The origin of the aperture is its center*
0 $1 length*
0 $2 width*
0 $3 Rotation angle, in degrees counterclockwise*
0 Add horizontal line*
21,1,$1,$2,0,0,$3*%
G04 Aperture macros list end*
%ADD10C,0.150000*%
%ADD11R,1.700000X1.700000*%
%ADD12O,1.700000X1.700000*%
%ADD13RoundRect,0.250000X0.262500X0.450000X-0.262500X0.450000X-0.262500X-0.450000X0.262500X-0.450000X0*%
%ADD14R,1.000000X1.000000*%
%ADD15C,3.450000*%
%ADD16R,1.755000X1.755000*%
%ADD17C,1.755000*%
%ADD18C,3.200000*%
%ADD19RotRect,1.755000X1.755000X60.000000*%
%ADD20RotRect,1.755000X1.755000X300.000000*%
G04 APERTURE END LIST*
D10*
X139684519Y-100198242D02*
X139768073Y-100133978D01*
X139861272Y-99995805D01*
X139870917Y-99921896D01*
X139861922Y-99875622D01*
X139825293Y-99810708D01*
X139770024Y-99773428D01*
X139696115Y-99763783D01*
X139649840Y-99772778D01*
X139584926Y-99809407D01*
X139482733Y-99901306D01*
X139417819Y-99937935D01*
X139371544Y-99946930D01*
X139297635Y-99937285D01*
X139242366Y-99900006D01*
X139205737Y-99835092D01*
X139196742Y-99788817D01*
X139206387Y-99714908D01*
X139299586Y-99576735D01*
X139383140Y-99512471D01*
X140103589Y-99636555D02*
X139716705Y-99375599D01*
X139523263Y-99245120D02*
X139532258Y-99291395D01*
X139578532Y-99282400D01*
X139569537Y-99236126D01*
X139523263Y-99245120D01*
X139578532Y-99282400D01*
X140345906Y-99277306D02*
X140280992Y-99313935D01*
X140207083Y-99304290D01*
X139709660Y-98968774D01*
X140070860Y-98850542D02*
X140550943Y-98973325D01*
X140257258Y-98574196D01*
X140793260Y-98614076D02*
X140406376Y-98353119D01*
X140212934Y-98222641D02*
X140221929Y-98268915D01*
X140268203Y-98259920D01*
X140259208Y-98213646D01*
X140212934Y-98222641D01*
X140268203Y-98259920D01*
X140760532Y-97828062D02*
X141147416Y-98089019D01*
X140592774Y-98076773D02*
X140896754Y-98281811D01*
X140970663Y-98291456D01*
X141035577Y-98254826D01*
X141091497Y-98171922D01*
X141101142Y-98098013D01*
X141092147Y-98051739D01*
X140995804Y-97061988D02*
X141219481Y-96730373D01*
X141687969Y-97287616D02*
X141107643Y-96896181D01*
X141986205Y-96845462D02*
X141921291Y-96882092D01*
X141875017Y-96891086D01*
X141801108Y-96881442D01*
X141635300Y-96769603D01*
X141598671Y-96704689D01*
X141589676Y-96658414D01*
X141599321Y-96584506D01*
X141655240Y-96501602D01*
X141720154Y-96464972D01*
X141766429Y-96455978D01*
X141840338Y-96465622D01*
X142006145Y-96577461D01*
X142042775Y-96642375D01*
X142051769Y-96688650D01*
X142042125Y-96762558D01*
X141986205Y-96845462D01*
X142452199Y-96154598D02*
X141871873Y-95763163D01*
X142424565Y-96135958D02*
X142414920Y-96209867D01*
X142340361Y-96320405D01*
X142275447Y-96357035D01*
X142229172Y-96366029D01*
X142155263Y-96356384D01*
X141989456Y-96244546D01*
X141952826Y-96179632D01*
X141943832Y-96133357D01*
X141953477Y-96059448D01*
X142028036Y-95948910D01*
X142092950Y-95912281D01*
X142760080Y-95638535D02*
X142750436Y-95712444D01*
X142675876Y-95822983D01*
X142610962Y-95859612D01*
X142537053Y-95849967D01*
X142315977Y-95700849D01*
X142279347Y-95635935D01*
X142288992Y-95562026D01*
X142363551Y-95451488D01*
X142428465Y-95414858D01*
X142502374Y-95424503D01*
X142557644Y-95461783D01*
X142426515Y-95775408D01*
X142974113Y-95380829D02*
X142587228Y-95119872D01*
X142697767Y-95194432D02*
X142661137Y-95129517D01*
X142652143Y-95083243D01*
X142661788Y-95009334D01*
X142699067Y-94954065D01*
X143216430Y-95021580D02*
X142829545Y-94760623D01*
X142636103Y-94630145D02*
X142645098Y-94676419D01*
X142691372Y-94667424D01*
X142682378Y-94621150D01*
X142636103Y-94630145D01*
X142691372Y-94667424D01*
X142960024Y-94567181D02*
X143109142Y-94346104D01*
X142822501Y-94353799D02*
X143319923Y-94689314D01*
X143393832Y-94698959D01*
X143458747Y-94662330D01*
X143496026Y-94607061D01*
X143794262Y-94164907D02*
X143490282Y-93959870D01*
X143416373Y-93950225D01*
X143351459Y-93986854D01*
X143276900Y-94097393D01*
X143267255Y-94171302D01*
X143766628Y-94146268D02*
X143756983Y-94220177D01*
X143663784Y-94358350D01*
X143598870Y-94394979D01*
X143524961Y-94385334D01*
X143469692Y-94348054D01*
X143433062Y-94283140D01*
X143442707Y-94209231D01*
X143535906Y-94071058D01*
X143545551Y-93997150D01*
D11*
X157500000Y-100775000D03*
D12*
X157500000Y-98235000D03*
D13*
X158412500Y-104500000D03*
X156587500Y-104500000D03*
D14*
X152000000Y-112000000D03*
D15*
X161310000Y-84366000D03*
X153690000Y-84366000D03*
D16*
X154960000Y-93006000D03*
D17*
X157500000Y-93006000D03*
X160040000Y-93006000D03*
D18*
X157500000Y-110500000D03*
D15*
X169724459Y-109211261D03*
X173534459Y-102612148D03*
D19*
X165417000Y-99392000D03*
D17*
X164147000Y-101591705D03*
X162877000Y-103791409D03*
D15*
X145275541Y-109210852D03*
X141465541Y-102611739D03*
D20*
X152123000Y-103791000D03*
D17*
X150853000Y-101591295D03*
X149583000Y-99391591D03*
D14*
X165500000Y-88000000D03*
X162500000Y-112000000D03*
D18*
X168000000Y-92000000D03*
X147000000Y-92000000D03*
M02*
